<svg width="40" height="40" viewBox="0 0 40 40" fill="none" xmlns="http://www.w3.org/2000/svg">
<path d="M32.942 11.7238L24.2753 3.05717C24.0247 2.8065 23.686 2.6665 23.3327 2.6665H9.33268C7.85935 2.6665 6.66602 3.85984 6.66602 5.33317V34.6665C6.66602 36.1398 7.85935 37.3332 9.33268 37.3332H30.666C32.1393 37.3332 33.3327 36.1398 33.3327 34.6665V12.6665C33.3327 12.3132 33.1927 11.9745 32.942 11.7238ZM23.9993 13.3332C23.2633 13.3332 22.666 12.7358 22.666 11.9998V5.20517L30.794 13.3332H23.9993Z" fill="#007DF0"/>
<path d="M21.8646 19H12.1339C11.5075 19 11 18.5527 11 18.0007C11 17.4486 11.5075 17 12.1339 17H21.8646C22.491 17 23 17.4486 23 18.0007C23 18.5527 22.491 19 21.8646 19Z" fill="#F8F9FA"/>
<path d="M21.8646 25H12.1339C11.5075 25 11 24.5527 11 24.0007C11 23.4486 11.5075 23 12.1339 23H21.8646C22.491 23 23 23.4486 23 24.0007C23 24.5527 22.491 25 21.8646 25Z" fill="#F8F9FA"/>
<path d="M17.7772 31H12.2212C11.5466 31 11 30.5527 11 30.0007C11 29.4486 11.5466 29 12.2212 29H17.7772C18.4518 29 19 29.4486 19 30.0007C19 30.5527 18.4518 31 17.7772 31Z" fill="#F8F9FA"/>
</svg>
