<svg width="40" height="40" viewBox="0 0 40 40" fill="none" xmlns="http://www.w3.org/2000/svg">
<path d="M32.3333 4H6.66667C5.69421 4 4.76157 4.38631 4.07394 5.07394C3.38631 5.76157 3 6.69421 3 7.66667V33.3333C3 34.3058 3.38631 35.2384 4.07394 35.9261C4.76157 36.6137 5.69421 37 6.66667 37H32.3333C33.3058 37 34.2384 36.6137 34.9261 35.9261C35.6137 35.2384 36 34.3058 36 33.3333V7.66667C36 6.69421 35.6137 5.76157 34.9261 5.07394C34.2384 4.38631 33.3058 4 32.3333 4ZM23.0567 25.6517L19.005 29.6667C17.8133 30.895 16.2367 31.5 14.66 31.5C13.0833 31.5 11.5067 30.895 10.3333 29.6667C7.895 27.3017 7.895 23.3967 10.3333 20.9767L12.8083 18.4833L12.79 19.5833C12.7717 20.5 12.9183 21.4167 13.2117 22.2233L13.3033 22.4983L12.57 23.25C12.2922 23.5226 12.0715 23.8478 11.9208 24.2066C11.7702 24.5655 11.6926 24.9508 11.6926 25.34C11.6926 25.7292 11.7702 26.1145 11.9208 26.4734C12.0715 26.8322 12.2922 27.1574 12.57 27.43C13.6883 28.5667 15.6317 28.5667 16.75 27.43L20.7833 23.415C21.3333 22.8467 21.6633 22.095 21.6633 21.3067C21.6633 20.5 21.3333 19.785 20.7833 19.2167C20.6326 19.0682 20.5128 18.8913 20.4311 18.6962C20.3494 18.501 20.3073 18.2916 20.3073 18.08C20.3073 17.8684 20.3494 17.659 20.4311 17.4638C20.5128 17.2687 20.6326 17.0918 20.7833 16.9433C21.3883 16.3383 22.4517 16.3567 23.0567 16.9433C24.2117 18.1167 24.8533 19.6567 24.8533 21.3067C24.8533 22.9567 24.2117 24.4967 23.0567 25.6517ZM28.6667 20.0233L26.21 22.5167V21.4167C26.2283 20.5 26.0817 19.5833 25.7883 18.7767L25.6967 18.52L26.43 17.75C26.7078 17.4774 26.9285 17.1522 27.0792 16.7934C27.2298 16.4345 27.3074 16.0492 27.3074 15.66C27.3074 15.2708 27.2298 14.8855 27.0792 14.5266C26.9285 14.1678 26.7078 13.8426 26.43 13.57C25.3117 12.4333 23.35 12.4517 22.25 13.57L18.2167 17.6033C17.6667 18.1533 17.3367 18.905 17.3367 19.6933C17.3367 20.5 17.6667 21.215 18.2167 21.7833C18.5283 22.0767 18.6933 22.48 18.6933 22.92C18.6933 23.36 18.5283 23.7633 18.2167 24.0567C18.0674 24.2051 17.8899 24.3221 17.6947 24.4008C17.4995 24.4795 17.2905 24.5183 17.08 24.515C16.6767 24.515 16.255 24.3683 15.9433 24.0567C14.79 22.9011 14.1422 21.3351 14.1422 19.7025C14.1422 18.0699 14.79 16.5039 15.9433 15.3483L19.995 11.3333C20.5602 10.7565 21.2348 10.2982 21.9793 9.98539C22.7238 9.67254 23.5233 9.5114 24.3308 9.5114C25.1384 9.5114 25.9379 9.67254 26.6824 9.98539C27.4269 10.2982 28.1015 10.7565 28.6667 11.3333C29.8583 12.47 30.5 14.01 30.5 15.66C30.5 17.31 29.8583 18.85 28.6667 20.0233Z" fill="#96CC79"/>
</svg>
