<svg width="32" height="28" viewBox="0 0 32 28" fill="none" xmlns="http://www.w3.org/2000/svg">
<path d="M0 4C0 2.93913 0.421427 1.92172 1.17157 1.17157C1.92172 0.421427 2.93913 0 4 0H28C29.0609 0 30.0783 0.421427 30.8284 1.17157C31.5786 1.92172 32 2.93913 32 4V24C32 25.0609 31.5786 26.0783 30.8284 26.8284C30.0783 27.5786 29.0609 28 28 28H4C2.93913 28 1.92172 27.5786 1.17157 26.8284C0.421427 26.0783 0 25.0609 0 24V4ZM19 15H13C12.7348 15 12.4804 15.1054 12.2929 15.2929C12.1054 15.4804 12 15.7348 12 16C12 16.2652 12.1054 16.5196 12.2929 16.7071C12.4804 16.8946 12.7348 17 13 17H19C19.2652 17 19.5196 16.8946 19.7071 16.7071C19.8946 16.5196 20 16.2652 20 16C20 15.7348 19.8946 15.4804 19.7071 15.2929C19.5196 15.1054 19.2652 15 19 15ZM6.292 14.292C6.19902 14.385 6.12527 14.4954 6.07495 14.6168C6.02464 14.7383 5.99874 14.8685 5.99874 15C5.99874 15.1315 6.02464 15.2617 6.07495 15.3832C6.12527 15.5046 6.19902 15.615 6.292 15.708C6.47977 15.8958 6.73445 16.0013 7 16.0013C7.13149 16.0013 7.26169 15.9754 7.38317 15.925C7.50465 15.8747 7.61502 15.801 7.708 15.708L11.708 11.708C11.8011 11.6151 11.875 11.5048 11.9254 11.3833C11.9758 11.2618 12.0018 11.1315 12.0018 11C12.0018 10.8685 11.9758 10.7382 11.9254 10.6167C11.875 10.4952 11.8011 10.3849 11.708 10.292L7.708 6.292C7.61502 6.19902 7.50465 6.12527 7.38317 6.07495C7.26169 6.02463 7.13149 5.99874 7 5.99874C6.86851 5.99874 6.73831 6.02463 6.61683 6.07495C6.49535 6.12527 6.38498 6.19902 6.292 6.292C6.19902 6.38498 6.12527 6.49535 6.07495 6.61683C6.02464 6.73831 5.99874 6.86851 5.99874 7C5.99874 7.13149 6.02464 7.26169 6.07495 7.38317C6.12527 7.50465 6.19902 7.61502 6.292 7.708L9.586 11L6.292 14.292Z" fill="#6867EE"/>
</svg>
